<svg xmlns="http://www.w3.org/2000/svg" viewBox="0 0 173 64"><path transform="translate(6.00,48.00)  scale(0.020000,-0.020000)" fill="#1C1917" d="M375 531Q388 579 405.0 642.0Q422 705 445.0 787.5Q468 870 498.0 976.5Q528 1083 566 1219Q586 1291 618.0 1334.0Q650 1377 689.5 1396.0Q729 1415 769 1415Q803 1415 834.5 1394.5Q866 1374 897.5 1346.5Q929 1319 962.5 1298.5Q996 1278 1033 1278Q1074 1278 1097.0 1299.5Q1120 1321 1120 1352Q1120 1397 1070.0 1427.0Q1020 1457 923 1457Q740 1457 608.0 1397.5Q476 1338 389.5 1221.0Q303 1104 256 931L23 80Q14 44 15.0 22.5Q16 1 34.0 -8.5Q52 -18 92 -18Q158 -18 203.5 -8.5Q249 1 273.0 18.5Q297 36 297 60Q297 76 289.0 88.5Q281 101 281 120Q281 143 285.0 174.0Q289 205 300.5 257.0Q312 309 335 393Q361 494 406.5 574.5Q452 655 506.5 713.0Q561 771 614.5 801.0Q668 831 710 829Q748 827 765.5 797.0Q783 767 775 714Q763 631 710.5 561.5Q658 492 559.0 441.5Q460 391 307 363L310 346Q551 388 698.5 444.0Q846 500 917.0 568.0Q988 636 998 715Q1011 803 964.0 850.0Q917 897 833 900Q764 902 694.0 874.0Q624 846 559.5 794.0Q495 742 443.5 670.5Q392 599 360 514ZM460 389 526 129Q545 50 583.0 16.0Q621 -18 679 -18Q733 -18 777.0 0.0Q821 18 858.5 58.0Q896 98 928 165Q930 170 929.5 173.0Q929 176 926 177Q924 179 921.0 177.5Q918 176 916 173Q887 129 864.5 111.5Q842 94 819 94Q794 94 776.5 114.0Q759 134 745 180L660 450Z"/><path transform="translate(26.04,48.00)  scale(0.020000,-0.020000)" fill="#1C1917" d="M318 218Q291 131 298.5 101.0Q306 71 331 71Q352 71 377.5 89.0Q403 107 440 154Q446 163 448.5 165.5Q451 168 454 167Q458 166 457.5 160.5Q457 155 452 145Q412 72 341.5 27.0Q271 -18 171 -18Q113 -18 84.5 3.0Q56 24 54.0 68.0Q52 112 73 178L223 643Q250 725 246.0 756.0Q242 787 215 787Q195 787 168.0 769.5Q141 752 96 699Q91 694 88.0 692.0Q85 690 81 690Q78 691 79.0 694.5Q80 698 83 704Q139 792 213.5 844.0Q288 896 369 896Q419 896 449.5 873.0Q480 850 486.0 804.0Q492 758 469 686ZM404 1020Q355 1020 328.5 1045.0Q302 1070 302 1109Q302 1148 325.5 1191.5Q349 1235 388.5 1265.5Q428 1296 479 1296Q537 1296 562.0 1270.5Q587 1245 587 1207Q587 1162 564.5 1118.5Q542 1075 501.0 1047.5Q460 1020 404 1020Z"/><path transform="translate(36.72,48.00)  scale(0.020000,-0.020000)" fill="#1C1917" d="M648 1457Q719 1457 753.0 1432.0Q787 1407 787 1372Q787 1341 765.5 1320.5Q744 1300 705 1300Q677 1300 647.5 1311.5Q618 1323 588.5 1339.0Q559 1355 532.0 1366.5Q505 1378 484 1378Q465 1378 447.5 1364.5Q430 1351 419.5 1329.5Q409 1308 409 1284Q409 1260 423.0 1237.0Q437 1214 456.5 1188.0Q476 1162 492.0 1128.5Q508 1095 512.0 1050.0Q516 1005 499 943L290 218Q264 130 270.5 100.5Q277 71 302 71Q323 71 348.5 89.0Q374 107 411 154Q418 163 420.5 165.5Q423 168 426 167Q430 166 429.5 160.5Q429 155 424 145Q397 96 356.0 59.5Q315 23 263.0 2.5Q211 -18 149 -18Q92 -18 63.0 4.0Q34 26 30.0 69.5Q26 113 45 178L345 1219Q381 1343 456.5 1400.0Q532 1457 648 1457Z"/><path transform="translate(46.78,48.00)  scale(0.020000,-0.020000)" fill="#1C1917" d="M318 218Q291 131 298.5 101.0Q306 71 331 71Q352 71 377.5 89.0Q403 107 440 154Q446 163 448.5 165.5Q451 168 454 167Q458 166 457.5 160.5Q457 155 452 145Q412 72 341.5 27.0Q271 -18 171 -18Q113 -18 84.5 3.0Q56 24 54.0 68.0Q52 112 73 178L223 643Q250 725 246.0 756.0Q242 787 215 787Q195 787 168.0 769.5Q141 752 96 699Q91 694 88.0 692.0Q85 690 81 690Q78 691 79.0 694.5Q80 698 83 704Q139 792 213.5 844.0Q288 896 369 896Q419 896 449.5 873.0Q480 850 486.0 804.0Q492 758 469 686ZM404 1020Q355 1020 328.5 1045.0Q302 1070 302 1109Q302 1148 325.5 1191.5Q349 1235 388.5 1265.5Q428 1296 479 1296Q537 1296 562.0 1270.5Q587 1245 587 1207Q587 1162 564.5 1118.5Q542 1075 501.0 1047.5Q460 1020 404 1020Z"/><path transform="translate(57.46,48.00)  scale(0.020000,-0.020000)" fill="#1C1917" d="M568 900Q680 898 758.5 846.0Q837 794 873.5 699.5Q910 605 893 477Q880 374 838.0 284.5Q796 195 727.5 127.0Q659 59 568.5 20.5Q478 -18 369 -18Q265 -18 184.0 31.0Q103 80 63.5 173.0Q24 266 40 397Q55 509 100.0 601.5Q145 694 215.0 762.0Q285 830 375.0 866.0Q465 902 568 900ZM370 7Q407 7 446.5 48.5Q486 90 523.0 158.5Q560 227 590.5 311.0Q621 395 641.5 482.0Q662 569 668 646Q679 728 669.0 777.5Q659 827 634.5 850.0Q610 873 576 875Q537 876 496.0 836.0Q455 796 416.5 727.5Q378 659 346.0 574.0Q314 489 292.5 399.5Q271 310 264 229Q254 144 265.5 95.5Q277 47 305.0 27.0Q333 7 370 7Z"/><path transform="translate(76.14,48.00)  scale(0.020000,-0.020000)" fill="#C1121F" d="M375 531Q388 579 405.0 642.0Q422 705 445.0 787.5Q468 870 498.0 976.5Q528 1083 566 1219Q586 1291 618.0 1334.0Q650 1377 689.5 1396.0Q729 1415 769 1415Q803 1415 834.5 1394.5Q866 1374 897.5 1346.5Q929 1319 962.5 1298.5Q996 1278 1033 1278Q1074 1278 1097.0 1299.5Q1120 1321 1120 1352Q1120 1397 1070.0 1427.0Q1020 1457 923 1457Q740 1457 608.0 1397.5Q476 1338 389.5 1221.0Q303 1104 256 931L23 80Q14 44 15.0 22.5Q16 1 34.0 -8.5Q52 -18 92 -18Q158 -18 203.5 -8.5Q249 1 273.0 18.5Q297 36 297 60Q297 76 289.0 88.5Q281 101 281 120Q281 143 285.0 174.0Q289 205 300.5 257.0Q312 309 335 393Q361 494 406.5 574.5Q452 655 506.5 713.0Q561 771 614.5 801.0Q668 831 710 829Q748 827 765.5 797.0Q783 767 775 714Q763 631 710.5 561.5Q658 492 559.0 441.5Q460 391 307 363L310 346Q551 388 698.5 444.0Q846 500 917.0 568.0Q988 636 998 715Q1011 803 964.0 850.0Q917 897 833 900Q764 902 694.0 874.0Q624 846 559.5 794.0Q495 742 443.5 670.5Q392 599 360 514ZM460 389 526 129Q545 50 583.0 16.0Q621 -18 679 -18Q733 -18 777.0 0.0Q821 18 858.5 58.0Q896 98 928 165Q930 170 929.5 173.0Q929 176 926 177Q924 179 921.0 177.5Q918 176 916 173Q887 129 864.5 111.5Q842 94 819 94Q794 94 776.5 114.0Q759 134 745 180L660 450Z"/><path transform="translate(96.18,48.00)  scale(0.020000,-0.020000)" fill="#C1121F" d="M780 230Q754 133 758.5 102.0Q763 71 790 71Q811 71 835.5 89.0Q860 107 898 154Q904 163 906.5 165.5Q909 168 912 167Q916 166 915.5 160.5Q915 155 910 145Q869 72 800.5 27.0Q732 -18 641 -18Q581 -18 554.5 8.0Q528 34 528 83Q528 101 532.5 130.0Q537 159 546.0 197.5Q555 236 568.0 283.0Q581 330 596 385L605 381Q558 257 502.5 167.5Q447 78 378.5 30.0Q310 -18 224 -18Q123 -18 70.0 54.5Q17 127 32 271Q39 369 77.0 461.0Q115 553 178.0 631.5Q241 710 323.0 769.5Q405 829 501.0 862.5Q597 896 701 896Q776 896 838.0 885.0Q900 874 936.5 860.5Q973 847 973 837Q973 828 964.0 823.5Q955 819 945.0 814.5Q935 810 931 798ZM271 242Q258 141 280.0 98.5Q302 56 338 56Q369 56 402.5 83.5Q436 111 471.5 167.0Q507 223 543.0 306.0Q579 389 616.0 500.0Q653 611 691 750Q707 809 704.0 841.5Q701 874 664 874Q610 874 556.5 837.0Q503 800 455.0 736.0Q407 672 369.0 590.5Q331 509 305.0 419.5Q279 330 271 242Z"/><path transform="translate(115.74,48.00)  scale(0.020000,-0.020000)" fill="#C1121F" d="M219 847 141 858Q136 860 134.0 862.5Q132 865 132 869Q132 873 135.5 875.5Q139 878 143 878H249Q257 878 262.5 879.5Q268 881 275 887L513 1063Q517 1066 521.5 1068.5Q526 1071 531 1071Q535 1071 537.0 1068.0Q539 1065 539 1060Q539 1057 538.0 1052.0Q537 1047 535 1039L304 211Q281 127 292.0 99.0Q303 71 332 71Q365 71 400.0 97.0Q435 123 477 178Q482 187 485.0 189.5Q488 192 491 191Q495 190 495.0 184.5Q495 179 489 169Q467 129 434.5 95.0Q402 61 362.0 35.5Q322 10 275.0 -4.0Q228 -18 175 -18Q116 -18 84.5 2.0Q53 22 48.0 66.5Q43 111 63 180L237 798Q244 823 240.0 834.0Q236 845 219 847ZM439 859 449 878H655Q667 878 667 869Q667 864 662.0 861.5Q657 859 649 859Z"/><path transform="translate(127.24,48.00)  scale(0.020000,-0.020000)" fill="#C1121F" d="M301 2Q359 2 398.0 41.0Q437 80 438 139Q438 172 425.0 202.0Q412 232 381.0 267.5Q350 303 298 350Q235 405 195.5 448.5Q156 492 139.0 533.5Q122 575 125 623Q129 697 176.0 760.0Q223 823 305.5 862.5Q388 902 500 902Q594 902 656.5 878.0Q719 854 751.0 816.5Q783 779 784 738Q785 697 764.5 673.0Q744 649 712 649Q674 649 647.5 676.5Q621 704 603 776Q586 834 556.5 858.0Q527 882 485 882Q423 882 382.5 841.0Q342 800 341 732Q341 693 354.0 658.5Q367 624 405.0 582.0Q443 540 516 477Q575 426 609.5 386.0Q644 346 657.5 308.0Q671 270 665 224Q656 154 606.5 99.5Q557 45 475.5 13.5Q394 -18 289 -18Q192 -18 125.5 10.0Q59 38 26.0 82.0Q-7 126 -7 174Q-7 210 10.5 234.5Q28 259 61 259Q102 259 126.5 229.0Q151 199 170 128Q194 59 225.0 30.5Q256 2 301 2Z"/><path transform="translate(142.70,48.00)  scale(0.020000,-0.020000)" fill="#C1121F" d="M965 187Q969 187 968.0 183.0Q967 179 963 174Q907 86 828.5 34.0Q750 -18 669 -18Q617 -18 590.5 5.5Q564 29 564 76Q564 109 575.5 154.5Q587 200 603.0 247.5Q619 295 633.5 335.5Q648 376 652 397L659 395Q605 279 543.0 199.5Q481 120 418.0 72.0Q355 24 295.5 3.0Q236 -18 186 -18Q125 -18 94.5 11.0Q64 40 62.0 93.5Q60 147 83 221L218 660Q246 749 238.0 777.5Q230 806 206 806Q186 806 160.0 788.5Q134 771 96 723Q90 715 87.5 712.5Q85 710 82 711Q79 712 79.0 717.0Q79 722 84 732Q125 806 195.0 851.0Q265 896 364 896Q423 896 451.5 874.5Q480 853 481.5 810.0Q483 767 463 700L327 264Q298 169 308.5 135.0Q319 101 359 101Q387 101 427.5 125.0Q468 149 515.5 201.0Q563 253 610.0 336.5Q657 420 697 538Q717 595 727.5 638.0Q738 681 743.0 711.0Q748 741 748 760Q748 779 740.0 790.5Q732 802 732 819Q732 852 785.0 874.0Q838 896 933 896Q994 896 1004.5 872.0Q1015 848 999 793L822 234Q795 151 800.0 120.5Q805 90 831 90Q852 90 879.0 108.5Q906 127 950 178Q955 183 958.5 185.5Q962 188 965 187Z"/></svg>